# xmcd CD database file
#
# Track frame offsets:
#	182
#	15715
#	33817
#	53005
#	64800
#	80742
#	117065
#	128300
#	140935
#	157310
#	174340
#	201547
#	231052
#	240797
#	275235
#	312095
#
# Disc length: 4501 seconds
#
# Revision: 1
# Processed by: cddbd v1.4PL0 Copyright (c) Steve Scherf et al.
# Submitted via: Feurio! 1.65 - http://www.feurio.com
#
DISCID=da119310
DTITLE=Taste - The Best Of Taste
DYEAR=1994
DGENRE=Blues
TTITLE0=Blister On The Moon
TTITLE1=Born On The Wrong Side Of Town
TTITLE2=Leavin Blues
TTITLE3=Hail
TTITLE4=Same Old Story
TTITLE5=Catfish
TTITLE6=I'm Moving On
TTITLE7=Whats Going On
TTITLE8=Railway And Gun
TTITLE9=Eat My Words
TTITLE10=On The Boards
TTITLE11=It's Happened Before, It'll Happen Again
TTITLE12=If The Day Was Any Longer
TTITLE13=I Feel So Good
TTITLE14=Sugar Mama
TTITLE15=Sinner Boy
EXTD=
EXTT0=
EXTT1=
EXTT2=
EXTT3=
EXTT4=
EXTT5=
EXTT6=
EXTT7=
EXTT8=
EXTT9=
EXTT10=
EXTT11=
EXTT12=
EXTT13=
EXTT14=
EXTT15=
PLAYORDER=
